<?xml version="1.0" encoding="UTF-8" standalone="no"?>
<!DOCTYPE svg PUBLIC "-//W3C//DTD SVG 1.1//EN"
 "http://www.w3.org/Graphics/SVG/1.1/DTD/svg11.dtd">
<!-- Generated by graphviz version 2.42.4 (0)
 -->
<!-- Title: G Pages: 1 -->
<svg width="1704pt" height="895pt"
 viewBox="0.00 0.00 1704.00 895.00" xmlns="http://www.w3.org/2000/svg" xmlns:xlink="http://www.w3.org/1999/xlink">
<g id="graph0" class="graph" transform="scale(1 1) rotate(0) translate(4 891)">
<title>G</title>
<polygon fill="white" stroke="transparent" points="-4,4 -4,-891 1700,-891 1700,4 -4,4"/>
<!-- aws_apigatewayv2_api.http_api -->
<g id="node1" class="node">
<title>aws_apigatewayv2_api.http_api</title>
<polygon fill="none" stroke="black" points="765.5,-624 545.5,-624 545.5,-588 765.5,-588 765.5,-624"/>
<text text-anchor="middle" x="655.5" y="-602.3" font-family="sans-serif" font-size="14.00">aws_apigatewayv2_api.http_api</text>
</g>
<!-- aws_apigatewayv2_integration.lambda_integration -->
<g id="node2" class="node">
<title>aws_apigatewayv2_integration.lambda_integration</title>
<polygon fill="none" stroke="black" points="1223.5,-624 875.5,-624 875.5,-588 1223.5,-588 1223.5,-624"/>
<text text-anchor="middle" x="1049.5" y="-602.3" font-family="sans-serif" font-size="14.00">aws_apigatewayv2_integration.lambda_integration</text>
</g>
<!-- aws_apigatewayv2_integration.lambda_integration&#45;&gt;aws_apigatewayv2_api.http_api -->
<g id="edge1" class="edge">
<title>aws_apigatewayv2_integration.lambda_integration&#45;&gt;aws_apigatewayv2_api.http_api</title>
<path fill="none" stroke="black" d="M875.42,-606C841.74,-606 807.14,-606 775.68,-606"/>
<polygon fill="black" stroke="black" points="775.58,-602.5 765.58,-606 775.58,-609.5 775.58,-602.5"/>
</g>
<!-- aws_lambda_function.handler -->
<g id="node19" class="node">
<title>aws_lambda_function.handler</title>
<polygon fill="none" stroke="black" points="762,-570 549,-570 549,-534 762,-534 762,-570"/>
<text text-anchor="middle" x="655.5" y="-548.3" font-family="sans-serif" font-size="14.00">aws_lambda_function.handler</text>
</g>
<!-- aws_apigatewayv2_integration.lambda_integration&#45;&gt;aws_lambda_function.handler -->
<g id="edge2" class="edge">
<title>aws_apigatewayv2_integration.lambda_integration&#45;&gt;aws_lambda_function.handler</title>
<path fill="none" stroke="black" d="M898.66,-588C875.98,-585.1 852.86,-582.05 831,-579 811.91,-576.34 791.67,-573.36 772,-570.37"/>
<polygon fill="black" stroke="black" points="772.5,-566.91 762.08,-568.86 771.44,-573.83 772.5,-566.91"/>
</g>
<!-- aws_apigatewayv2_route.default_route -->
<g id="node3" class="node">
<title>aws_apigatewayv2_route.default_route</title>
<polygon fill="none" stroke="black" points="1636,-624 1364,-624 1364,-588 1636,-588 1636,-624"/>
<text text-anchor="middle" x="1500" y="-602.3" font-family="sans-serif" font-size="14.00">aws_apigatewayv2_route.default_route</text>
</g>
<!-- aws_apigatewayv2_route.default_route&#45;&gt;aws_apigatewayv2_integration.lambda_integration -->
<g id="edge3" class="edge">
<title>aws_apigatewayv2_route.default_route&#45;&gt;aws_apigatewayv2_integration.lambda_integration</title>
<path fill="none" stroke="black" d="M1363.83,-606C1322.91,-606 1277.27,-606 1233.76,-606"/>
<polygon fill="black" stroke="black" points="1233.63,-602.5 1223.63,-606 1233.63,-609.5 1233.63,-602.5"/>
</g>
<!-- aws_apigatewayv2_stage.default_stage -->
<g id="node4" class="node">
<title>aws_apigatewayv2_stage.default_stage</title>
<polygon fill="none" stroke="black" points="1185.5,-678 913.5,-678 913.5,-642 1185.5,-642 1185.5,-678"/>
<text text-anchor="middle" x="1049.5" y="-656.3" font-family="sans-serif" font-size="14.00">aws_apigatewayv2_stage.default_stage</text>
</g>
<!-- aws_apigatewayv2_stage.default_stage&#45;&gt;aws_apigatewayv2_api.http_api -->
<g id="edge4" class="edge">
<title>aws_apigatewayv2_stage.default_stage&#45;&gt;aws_apigatewayv2_api.http_api</title>
<path fill="none" stroke="black" d="M913.25,-643.85C886,-640.42 857.57,-636.7 831,-633 813.11,-630.51 794.22,-627.73 775.72,-624.93"/>
<polygon fill="black" stroke="black" points="776.21,-621.47 765.8,-623.43 775.16,-628.39 776.21,-621.47"/>
</g>
<!-- aws_cloudwatch_log_group.consumer -->
<g id="node5" class="node">
<title>aws_cloudwatch_log_group.consumer</title>
<polygon fill="none" stroke="black" points="1182.5,-462 916.5,-462 916.5,-426 1182.5,-426 1182.5,-462"/>
<text text-anchor="middle" x="1049.5" y="-440.3" font-family="sans-serif" font-size="14.00">aws_cloudwatch_log_group.consumer</text>
</g>
<!-- aws_lambda_function.consumer -->
<g id="node18" class="node">
<title>aws_lambda_function.consumer</title>
<polygon fill="none" stroke="black" points="769.5,-516 541.5,-516 541.5,-480 769.5,-480 769.5,-516"/>
<text text-anchor="middle" x="655.5" y="-494.3" font-family="sans-serif" font-size="14.00">aws_lambda_function.consumer</text>
</g>
<!-- aws_cloudwatch_log_group.consumer&#45;&gt;aws_lambda_function.consumer -->
<g id="edge5" class="edge">
<title>aws_cloudwatch_log_group.consumer&#45;&gt;aws_lambda_function.consumer</title>
<path fill="none" stroke="black" d="M916.43,-459.75C888.22,-463.3 858.6,-467.15 831,-471 814.38,-473.32 796.88,-475.88 779.65,-478.47"/>
<polygon fill="black" stroke="black" points="778.9,-475.05 769.54,-480 779.95,-481.97 778.9,-475.05"/>
</g>
<!-- aws_cloudwatch_log_group.handler -->
<g id="node6" class="node">
<title>aws_cloudwatch_log_group.handler</title>
<polygon fill="none" stroke="black" points="1175,-516 924,-516 924,-480 1175,-480 1175,-516"/>
<text text-anchor="middle" x="1049.5" y="-494.3" font-family="sans-serif" font-size="14.00">aws_cloudwatch_log_group.handler</text>
</g>
<!-- aws_cloudwatch_log_group.handler&#45;&gt;aws_lambda_function.handler -->
<g id="edge6" class="edge">
<title>aws_cloudwatch_log_group.handler&#45;&gt;aws_lambda_function.handler</title>
<path fill="none" stroke="black" d="M923.91,-512.81C893.49,-516.61 861.05,-520.81 831,-525 811.91,-527.66 791.67,-530.64 772,-533.63"/>
<polygon fill="black" stroke="black" points="771.44,-530.17 762.08,-535.14 772.5,-537.09 771.44,-530.17"/>
</g>
<!-- aws_db_instance.postgres -->
<g id="node7" class="node">
<title>aws_db_instance.postgres</title>
<polygon fill="none" stroke="black" points="1143.5,-354 955.5,-354 955.5,-318 1143.5,-318 1143.5,-354"/>
<text text-anchor="middle" x="1049.5" y="-332.3" font-family="sans-serif" font-size="14.00">aws_db_instance.postgres</text>
</g>
<!-- aws_db_subnet_group.rds -->
<g id="node8" class="node">
<title>aws_db_subnet_group.rds</title>
<polygon fill="none" stroke="black" points="748.5,-262 562.5,-262 562.5,-226 748.5,-226 748.5,-262"/>
<text text-anchor="middle" x="655.5" y="-240.3" font-family="sans-serif" font-size="14.00">aws_db_subnet_group.rds</text>
</g>
<!-- aws_db_instance.postgres&#45;&gt;aws_db_subnet_group.rds -->
<g id="edge7" class="edge">
<title>aws_db_instance.postgres&#45;&gt;aws_db_subnet_group.rds</title>
<path fill="none" stroke="black" d="M982.57,-317.97C931.56,-304.29 859.04,-285.44 795,-271 783.21,-268.34 770.83,-265.71 758.51,-263.18"/>
<polygon fill="black" stroke="black" points="759.16,-259.74 748.67,-261.19 757.77,-266.6 759.16,-259.74"/>
</g>
<!-- aws_security_group.rds -->
<g id="node31" class="node">
<title>aws_security_group.rds</title>
<polygon fill="none" stroke="black" points="740.5,-462 570.5,-462 570.5,-426 740.5,-426 740.5,-462"/>
<text text-anchor="middle" x="655.5" y="-440.3" font-family="sans-serif" font-size="14.00">aws_security_group.rds</text>
</g>
<!-- aws_db_instance.postgres&#45;&gt;aws_security_group.rds -->
<g id="edge8" class="edge">
<title>aws_db_instance.postgres&#45;&gt;aws_security_group.rds</title>
<path fill="none" stroke="black" d="M955.44,-331.5C914.81,-333.44 868.09,-341.25 831,-363 807.69,-376.67 817.57,-397.14 795,-412 781.6,-420.82 766.07,-427.22 750.37,-431.87"/>
<polygon fill="black" stroke="black" points="749.3,-428.53 740.58,-434.54 751.15,-435.29 749.3,-428.53"/>
</g>
<!-- aws_subnet.private_a -->
<g id="node33" class="node">
<title>aws_subnet.private_a</title>
<polygon fill="none" stroke="black" points="390.5,-316 232.5,-316 232.5,-280 390.5,-280 390.5,-316"/>
<text text-anchor="middle" x="311.5" y="-294.3" font-family="sans-serif" font-size="14.00">aws_subnet.private_a</text>
</g>
<!-- aws_db_subnet_group.rds&#45;&gt;aws_subnet.private_a -->
<g id="edge9" class="edge">
<title>aws_db_subnet_group.rds&#45;&gt;aws_subnet.private_a</title>
<path fill="none" stroke="black" d="M562.4,-258.54C512.15,-266.48 450.25,-276.25 400.63,-284.08"/>
<polygon fill="black" stroke="black" points="399.89,-280.66 390.56,-285.67 400.98,-287.57 399.89,-280.66"/>
</g>
<!-- aws_subnet.private_b -->
<g id="node34" class="node">
<title>aws_subnet.private_b</title>
<polygon fill="none" stroke="black" points="390.5,-370 232.5,-370 232.5,-334 390.5,-334 390.5,-370"/>
<text text-anchor="middle" x="311.5" y="-348.3" font-family="sans-serif" font-size="14.00">aws_subnet.private_b</text>
</g>
<!-- aws_db_subnet_group.rds&#45;&gt;aws_subnet.private_b -->
<g id="edge10" class="edge">
<title>aws_db_subnet_group.rds&#45;&gt;aws_subnet.private_b</title>
<path fill="none" stroke="black" d="M562.19,-251.45C545.9,-255.62 529.76,-261.83 516,-271 491.99,-286.99 504.26,-309.4 480,-325 456.71,-339.97 427.94,-347.59 400.86,-351.23"/>
<polygon fill="black" stroke="black" points="400.1,-347.8 390.58,-352.44 400.92,-354.75 400.1,-347.8"/>
</g>
<!-- aws_eip.nat -->
<g id="node9" class="node">
<title>aws_eip.nat</title>
<polygon fill="none" stroke="black" points="358.5,-36 264.5,-36 264.5,0 358.5,0 358.5,-36"/>
<text text-anchor="middle" x="311.5" y="-14.3" font-family="sans-serif" font-size="14.00">aws_eip.nat</text>
</g>
<!-- aws_iam_policy.lambda_sqs_access -->
<g id="node10" class="node">
<title>aws_iam_policy.lambda_sqs_access</title>
<polygon fill="none" stroke="black" points="777.5,-716 533.5,-716 533.5,-680 777.5,-680 777.5,-716"/>
<text text-anchor="middle" x="655.5" y="-694.3" font-family="sans-serif" font-size="14.00">aws_iam_policy.lambda_sqs_access</text>
</g>
<!-- aws_sqs_queue.bankai_queue -->
<g id="node32" class="node">
<title>aws_sqs_queue.bankai_queue</title>
<polygon fill="none" stroke="black" points="419,-570 204,-570 204,-534 419,-534 419,-570"/>
<text text-anchor="middle" x="311.5" y="-548.3" font-family="sans-serif" font-size="14.00">aws_sqs_queue.bankai_queue</text>
</g>
<!-- aws_iam_policy.lambda_sqs_access&#45;&gt;aws_sqs_queue.bankai_queue -->
<g id="edge11" class="edge">
<title>aws_iam_policy.lambda_sqs_access&#45;&gt;aws_sqs_queue.bankai_queue</title>
<path fill="none" stroke="black" d="M612.22,-679.95C549.41,-653.14 431.59,-602.84 363.89,-573.94"/>
<polygon fill="black" stroke="black" points="365.25,-570.71 354.68,-570.01 362.51,-577.15 365.25,-570.71"/>
</g>
<!-- aws_iam_policy.secrets_access -->
<g id="node11" class="node">
<title>aws_iam_policy.secrets_access</title>
<polygon fill="none" stroke="black" points="763,-770 548,-770 548,-734 763,-734 763,-770"/>
<text text-anchor="middle" x="655.5" y="-748.3" font-family="sans-serif" font-size="14.00">aws_iam_policy.secrets_access</text>
</g>
<!-- aws_secretsmanager_secret.app_secrets_version -->
<g id="node28" class="node">
<title>aws_secretsmanager_secret.app_secrets_version</title>
<polygon fill="none" stroke="black" points="480,-670 143,-670 143,-634 480,-634 480,-670"/>
<text text-anchor="middle" x="311.5" y="-648.3" font-family="sans-serif" font-size="14.00">aws_secretsmanager_secret.app_secrets_version</text>
</g>
<!-- aws_iam_policy.secrets_access&#45;&gt;aws_secretsmanager_secret.app_secrets_version -->
<g id="edge12" class="edge">
<title>aws_iam_policy.secrets_access&#45;&gt;aws_secretsmanager_secret.app_secrets_version</title>
<path fill="none" stroke="black" d="M552.73,-734C540.29,-731.26 527.81,-728.25 516,-725 464.24,-710.76 406.79,-689.64 366.17,-673.78"/>
<polygon fill="black" stroke="black" points="367.32,-670.47 356.73,-670.07 364.76,-676.99 367.32,-670.47"/>
</g>
<!-- aws_iam_role.lambda_exec -->
<g id="node12" class="node">
<title>aws_iam_role.lambda_exec</title>
<polygon fill="none" stroke="black" points="407,-824 216,-824 216,-788 407,-788 407,-824"/>
<text text-anchor="middle" x="311.5" y="-802.3" font-family="sans-serif" font-size="14.00">aws_iam_role.lambda_exec</text>
</g>
<!-- aws_iam_role_policy.lambda_exec_policy -->
<g id="node13" class="node">
<title>aws_iam_role_policy.lambda_exec_policy</title>
<polygon fill="none" stroke="black" points="795,-824 516,-824 516,-788 795,-788 795,-824"/>
<text text-anchor="middle" x="655.5" y="-802.3" font-family="sans-serif" font-size="14.00">aws_iam_role_policy.lambda_exec_policy</text>
</g>
<!-- aws_iam_role_policy.lambda_exec_policy&#45;&gt;aws_iam_role.lambda_exec -->
<g id="edge13" class="edge">
<title>aws_iam_role_policy.lambda_exec_policy&#45;&gt;aws_iam_role.lambda_exec</title>
<path fill="none" stroke="black" d="M515.89,-806C483.03,-806 448.52,-806 417.45,-806"/>
<polygon fill="black" stroke="black" points="417.05,-802.5 407.05,-806 417.05,-809.5 417.05,-802.5"/>
</g>
<!-- aws_iam_role_policy.lambda_exec_policy&#45;&gt;aws_secretsmanager_secret.app_secrets_version -->
<g id="edge14" class="edge">
<title>aws_iam_role_policy.lambda_exec_policy&#45;&gt;aws_secretsmanager_secret.app_secrets_version</title>
<path fill="none" stroke="black" d="M542.73,-787.93C533.56,-785.33 524.55,-782.37 516,-779 449.9,-752.96 381.52,-705.23 343.26,-676.28"/>
<polygon fill="black" stroke="black" points="345.18,-673.34 335.11,-670.05 340.93,-678.9 345.18,-673.34"/>
</g>
<!-- aws_iam_role_policy_attachment.lambda_secrets -->
<g id="node14" class="node">
<title>aws_iam_role_policy_attachment.lambda_secrets</title>
<polygon fill="none" stroke="black" points="1217,-887 882,-887 882,-851 1217,-851 1217,-887"/>
<text text-anchor="middle" x="1049.5" y="-865.3" font-family="sans-serif" font-size="14.00">aws_iam_role_policy_attachment.lambda_secrets</text>
</g>
<!-- aws_iam_role_policy_attachment.lambda_secrets&#45;&gt;aws_iam_policy.secrets_access -->
<g id="edge15" class="edge">
<title>aws_iam_role_policy_attachment.lambda_secrets&#45;&gt;aws_iam_policy.secrets_access</title>
<path fill="none" stroke="black" d="M904.52,-850.99C878.91,-844.02 853.31,-834.36 831,-821 809.91,-808.37 816.25,-791.37 795,-779 788,-774.92 780.5,-771.45 772.74,-768.49"/>
<polygon fill="black" stroke="black" points="773.77,-765.14 763.17,-765.13 771.45,-771.75 773.77,-765.14"/>
</g>
<!-- aws_iam_role_policy_attachment.lambda_secrets&#45;&gt;aws_iam_role.lambda_exec -->
<g id="edge16" class="edge">
<title>aws_iam_role_policy_attachment.lambda_secrets&#45;&gt;aws_iam_role.lambda_exec</title>
<path fill="none" stroke="black" d="M881.8,-870.62C776.52,-869.77 637.86,-865.23 516,-850 474.35,-844.8 428.61,-835.26 391.07,-826.39"/>
<polygon fill="black" stroke="black" points="391.75,-822.96 381.21,-824.03 390.12,-829.76 391.75,-822.96"/>
</g>
<!-- aws_iam_role_policy_attachment.lambda_sqs_policy_attachment -->
<g id="node15" class="node">
<title>aws_iam_role_policy_attachment.lambda_sqs_policy_attachment</title>
<polygon fill="none" stroke="black" points="1268,-812 831,-812 831,-776 1268,-776 1268,-812"/>
<text text-anchor="middle" x="1049.5" y="-790.3" font-family="sans-serif" font-size="14.00">aws_iam_role_policy_attachment.lambda_sqs_policy_attachment</text>
</g>
<!-- aws_iam_role_policy_attachment.lambda_sqs_policy_attachment&#45;&gt;aws_iam_policy.lambda_sqs_access -->
<g id="edge17" class="edge">
<title>aws_iam_role_policy_attachment.lambda_sqs_policy_attachment&#45;&gt;aws_iam_policy.lambda_sqs_access</title>
<path fill="none" stroke="black" d="M987.09,-775.93C935.95,-761.21 861.07,-740.41 795,-725 784.97,-722.66 774.49,-720.36 763.99,-718.15"/>
<polygon fill="black" stroke="black" points="764.43,-714.67 753.93,-716.06 763.01,-721.52 764.43,-714.67"/>
</g>
<!-- aws_iam_role_policy_attachment.lambda_sqs_policy_attachment&#45;&gt;aws_iam_role.lambda_exec -->
<g id="edge18" class="edge">
<title>aws_iam_role_policy_attachment.lambda_sqs_policy_attachment&#45;&gt;aws_iam_role.lambda_exec</title>
<path fill="none" stroke="black" d="M954.1,-812.03C906.57,-820.21 847.95,-828.95 795,-833 671.36,-842.46 639.73,-841.17 516,-833 483.83,-830.88 448.99,-826.88 417.37,-822.6"/>
<polygon fill="black" stroke="black" points="417.62,-819.1 407.23,-821.21 416.66,-826.04 417.62,-819.1"/>
</g>
<!-- aws_internet_gateway.igw -->
<g id="node16" class="node">
<title>aws_internet_gateway.igw</title>
<polygon fill="none" stroke="black" points="406.5,-176 216.5,-176 216.5,-140 406.5,-140 406.5,-176"/>
<text text-anchor="middle" x="311.5" y="-154.3" font-family="sans-serif" font-size="14.00">aws_internet_gateway.igw</text>
</g>
<!-- aws_vpc.main -->
<g id="node37" class="node">
<title>aws_vpc.main</title>
<polygon fill="none" stroke="black" points="107,-281 0,-281 0,-245 107,-245 107,-281"/>
<text text-anchor="middle" x="53.5" y="-259.3" font-family="sans-serif" font-size="14.00">aws_vpc.main</text>
</g>
<!-- aws_internet_gateway.igw&#45;&gt;aws_vpc.main -->
<g id="edge19" class="edge">
<title>aws_internet_gateway.igw&#45;&gt;aws_vpc.main</title>
<path fill="none" stroke="black" d="M216.29,-175.87C191.82,-182.21 165.91,-190.46 143,-201 121.81,-210.75 100.33,-225.65 83.84,-238.4"/>
<polygon fill="black" stroke="black" points="81.37,-235.89 75.7,-244.84 85.71,-241.38 81.37,-235.89"/>
</g>
<!-- aws_lambda_event_source_mapping.bankai_queue_sqs_trigger -->
<g id="node17" class="node">
<title>aws_lambda_event_source_mapping.bankai_queue_sqs_trigger</title>
<polygon fill="none" stroke="black" points="1263.5,-408 835.5,-408 835.5,-372 1263.5,-372 1263.5,-408"/>
<text text-anchor="middle" x="1049.5" y="-386.3" font-family="sans-serif" font-size="14.00">aws_lambda_event_source_mapping.bankai_queue_sqs_trigger</text>
</g>
<!-- aws_lambda_event_source_mapping.bankai_queue_sqs_trigger&#45;&gt;aws_lambda_function.consumer -->
<g id="edge20" class="edge">
<title>aws_lambda_event_source_mapping.bankai_queue_sqs_trigger&#45;&gt;aws_lambda_function.consumer</title>
<path fill="none" stroke="black" d="M847.62,-408.02C841.9,-410.72 836.34,-413.7 831,-417 806.46,-432.15 819.01,-455.01 795,-471 789.97,-474.35 784.63,-477.3 779.07,-479.91"/>
<polygon fill="black" stroke="black" points="777.37,-476.83 769.55,-483.97 780.12,-483.27 777.37,-476.83"/>
</g>
<!-- aws_lambda_function.consumer&#45;&gt;aws_iam_role.lambda_exec -->
<g id="edge21" class="edge">
<title>aws_lambda_function.consumer&#45;&gt;aws_iam_role.lambda_exec</title>
<path fill="none" stroke="black" d="M541.49,-508.09C532.12,-512.34 523.41,-517.86 516,-525 465.38,-573.77 518.28,-620.05 480,-679 449.92,-725.33 396.85,-761.27 358.5,-782.91"/>
<polygon fill="black" stroke="black" points="356.64,-779.94 349.58,-787.84 360.02,-786.07 356.64,-779.94"/>
</g>
<!-- aws_lambda_function.consumer&#45;&gt;aws_secretsmanager_secret.app_secrets_version -->
<g id="edge22" class="edge">
<title>aws_lambda_function.consumer&#45;&gt;aws_secretsmanager_secret.app_secrets_version</title>
<path fill="none" stroke="black" d="M541.45,-512.03C532.47,-515.5 523.85,-519.77 516,-525 491.99,-540.99 502.12,-560.49 480,-579 452.66,-601.88 417.05,-618.74 385.7,-630.45"/>
<polygon fill="black" stroke="black" points="384.33,-627.23 376.12,-633.93 386.71,-633.81 384.33,-627.23"/>
</g>
<!-- aws_security_group.lambda -->
<g id="node30" class="node">
<title>aws_security_group.lambda</title>
<polygon fill="none" stroke="black" points="410.5,-443 212.5,-443 212.5,-407 410.5,-407 410.5,-443"/>
<text text-anchor="middle" x="311.5" y="-421.3" font-family="sans-serif" font-size="14.00">aws_security_group.lambda</text>
</g>
<!-- aws_lambda_function.consumer&#45;&gt;aws_security_group.lambda -->
<g id="edge23" class="edge">
<title>aws_lambda_function.consumer&#45;&gt;aws_security_group.lambda</title>
<path fill="none" stroke="black" d="M559.81,-479.93C545.12,-477.02 530.14,-473.98 516,-471 477.77,-462.95 435.63,-453.52 399.66,-445.3"/>
<polygon fill="black" stroke="black" points="400.22,-441.84 389.69,-443.02 398.65,-448.66 400.22,-441.84"/>
</g>
<!-- aws_lambda_function.consumer&#45;&gt;aws_sqs_queue.bankai_queue -->
<g id="edge24" class="edge">
<title>aws_lambda_function.consumer&#45;&gt;aws_sqs_queue.bankai_queue</title>
<path fill="none" stroke="black" d="M541.09,-515.91C505.19,-521.57 465.46,-527.85 429.32,-533.55"/>
<polygon fill="black" stroke="black" points="428.56,-530.13 419.23,-535.15 429.65,-537.05 428.56,-530.13"/>
</g>
<!-- aws_lambda_function.consumer&#45;&gt;aws_subnet.private_a -->
<g id="edge25" class="edge">
<title>aws_lambda_function.consumer&#45;&gt;aws_subnet.private_a</title>
<path fill="none" stroke="black" d="M541.25,-487.66C531.98,-483.46 523.36,-478.01 516,-471 467.59,-424.92 529.15,-370.28 480,-325 458.68,-305.36 429.01,-296.83 400.55,-293.77"/>
<polygon fill="black" stroke="black" points="400.81,-290.28 390.55,-292.91 400.21,-297.26 400.81,-290.28"/>
</g>
<!-- aws_lambda_function.consumer&#45;&gt;aws_subnet.private_b -->
<g id="edge26" class="edge">
<title>aws_lambda_function.consumer&#45;&gt;aws_subnet.private_b</title>
<path fill="none" stroke="black" d="M541.37,-485.34C532.3,-481.58 523.69,-476.88 516,-471 487.26,-449.03 507.89,-421.04 480,-398 457.54,-379.45 428.17,-368.35 400.32,-361.72"/>
<polygon fill="black" stroke="black" points="401.06,-358.3 390.54,-359.55 399.55,-365.13 401.06,-358.3"/>
</g>
<!-- aws_lambda_function.handler&#45;&gt;aws_iam_role.lambda_exec -->
<g id="edge27" class="edge">
<title>aws_lambda_function.handler&#45;&gt;aws_iam_role.lambda_exec</title>
<path fill="none" stroke="black" d="M548.89,-560.44C536.91,-564.79 525.58,-570.79 516,-579 480.14,-609.75 507.97,-640.94 480,-679 446.89,-724.05 393.41,-760.67 355.81,-782.81"/>
<polygon fill="black" stroke="black" points="353.99,-779.82 347.09,-787.85 357.5,-785.88 353.99,-779.82"/>
</g>
<!-- aws_lambda_function.handler&#45;&gt;aws_secretsmanager_secret.app_secrets_version -->
<g id="edge28" class="edge">
<title>aws_lambda_function.handler&#45;&gt;aws_secretsmanager_secret.app_secrets_version</title>
<path fill="none" stroke="black" d="M552.73,-570C540.29,-572.74 527.81,-575.75 516,-579 464.24,-593.24 406.79,-614.36 366.17,-630.22"/>
<polygon fill="black" stroke="black" points="364.76,-627.01 356.73,-633.93 367.32,-633.53 364.76,-627.01"/>
</g>
<!-- aws_lambda_function.handler&#45;&gt;aws_security_group.lambda -->
<g id="edge29" class="edge">
<title>aws_lambda_function.handler&#45;&gt;aws_security_group.lambda</title>
<path fill="none" stroke="black" d="M549,-534.47C537.75,-531.7 526.56,-528.56 516,-525 456.29,-504.91 391.71,-470.86 351.68,-448.15"/>
<polygon fill="black" stroke="black" points="353.2,-444.99 342.79,-443.06 349.73,-451.07 353.2,-444.99"/>
</g>
<!-- aws_lambda_function.handler&#45;&gt;aws_sqs_queue.bankai_queue -->
<g id="edge30" class="edge">
<title>aws_lambda_function.handler&#45;&gt;aws_sqs_queue.bankai_queue</title>
<path fill="none" stroke="black" d="M548.63,-552C510.81,-552 468,-552 429.31,-552"/>
<polygon fill="black" stroke="black" points="429.05,-548.5 419.05,-552 429.05,-555.5 429.05,-548.5"/>
</g>
<!-- aws_lambda_function.handler&#45;&gt;aws_subnet.private_a -->
<g id="edge31" class="edge">
<title>aws_lambda_function.handler&#45;&gt;aws_subnet.private_a</title>
<path fill="none" stroke="black" d="M548.89,-545.57C536.6,-540.95 525.2,-534.33 516,-525 452.6,-460.68 544.44,-388.28 480,-325 459.23,-304.6 429.52,-295.93 400.88,-292.97"/>
<polygon fill="black" stroke="black" points="401.06,-289.47 390.81,-292.15 400.5,-296.45 401.06,-289.47"/>
</g>
<!-- aws_lambda_function.handler&#45;&gt;aws_subnet.private_b -->
<g id="edge32" class="edge">
<title>aws_lambda_function.handler&#45;&gt;aws_subnet.private_b</title>
<path fill="none" stroke="black" d="M548.68,-544.32C536.66,-539.86 525.38,-533.62 516,-525 472.82,-485.29 521.65,-439.31 480,-398 458.93,-377.1 429.31,-365.48 400.83,-359.08"/>
<polygon fill="black" stroke="black" points="401.32,-355.6 390.82,-357.03 399.91,-362.46 401.32,-355.6"/>
</g>
<!-- aws_lambda_permission.api_gateway -->
<g id="node20" class="node">
<title>aws_lambda_permission.api_gateway</title>
<polygon fill="none" stroke="black" points="1179.5,-570 919.5,-570 919.5,-534 1179.5,-534 1179.5,-570"/>
<text text-anchor="middle" x="1049.5" y="-548.3" font-family="sans-serif" font-size="14.00">aws_lambda_permission.api_gateway</text>
</g>
<!-- aws_lambda_permission.api_gateway&#45;&gt;aws_apigatewayv2_api.http_api -->
<g id="edge33" class="edge">
<title>aws_lambda_permission.api_gateway&#45;&gt;aws_apigatewayv2_api.http_api</title>
<path fill="none" stroke="black" d="M919.32,-567.39C890.24,-571.03 859.55,-575.02 831,-579 813.11,-581.49 794.22,-584.27 775.72,-587.07"/>
<polygon fill="black" stroke="black" points="775.16,-583.61 765.8,-588.57 776.21,-590.53 775.16,-583.61"/>
</g>
<!-- aws_lambda_permission.api_gateway&#45;&gt;aws_lambda_function.handler -->
<g id="edge34" class="edge">
<title>aws_lambda_permission.api_gateway&#45;&gt;aws_lambda_function.handler</title>
<path fill="none" stroke="black" d="M919.33,-552C871.84,-552 818.41,-552 772.18,-552"/>
<polygon fill="black" stroke="black" points="772.12,-548.5 762.12,-552 772.12,-555.5 772.12,-548.5"/>
</g>
<!-- aws_nat_gateway.nat -->
<g id="node21" class="node">
<title>aws_nat_gateway.nat</title>
<polygon fill="none" stroke="black" points="733,-40 578,-40 578,-4 733,-4 733,-40"/>
<text text-anchor="middle" x="655.5" y="-18.3" font-family="sans-serif" font-size="14.00">aws_nat_gateway.nat</text>
</g>
<!-- aws_nat_gateway.nat&#45;&gt;aws_eip.nat -->
<g id="edge35" class="edge">
<title>aws_nat_gateway.nat&#45;&gt;aws_eip.nat</title>
<path fill="none" stroke="black" d="M577.75,-21.1C514.34,-20.36 425.79,-19.33 368.79,-18.66"/>
<polygon fill="black" stroke="black" points="368.57,-15.16 358.53,-18.54 368.49,-22.16 368.57,-15.16"/>
</g>
<!-- aws_subnet.public_a -->
<g id="node35" class="node">
<title>aws_subnet.public_a</title>
<polygon fill="none" stroke="black" points="387.5,-90 235.5,-90 235.5,-54 387.5,-54 387.5,-90"/>
<text text-anchor="middle" x="311.5" y="-68.3" font-family="sans-serif" font-size="14.00">aws_subnet.public_a</text>
</g>
<!-- aws_nat_gateway.nat&#45;&gt;aws_subnet.public_a -->
<g id="edge36" class="edge">
<title>aws_nat_gateway.nat&#45;&gt;aws_subnet.public_a</title>
<path fill="none" stroke="black" d="M577.75,-33.22C524.26,-41.04 452.88,-51.48 397.64,-59.55"/>
<polygon fill="black" stroke="black" points="396.91,-56.12 387.52,-61.03 397.93,-63.05 396.91,-56.12"/>
</g>
<!-- aws_route_table.private -->
<g id="node22" class="node">
<title>aws_route_table.private</title>
<polygon fill="none" stroke="black" points="1136,-62 963,-62 963,-26 1136,-26 1136,-62"/>
<text text-anchor="middle" x="1049.5" y="-40.3" font-family="sans-serif" font-size="14.00">aws_route_table.private</text>
</g>
<!-- aws_route_table.private&#45;&gt;aws_nat_gateway.nat -->
<g id="edge37" class="edge">
<title>aws_route_table.private&#45;&gt;aws_nat_gateway.nat</title>
<path fill="none" stroke="black" d="M962.96,-39.2C897.95,-35.55 808.88,-30.55 743.51,-26.88"/>
<polygon fill="black" stroke="black" points="743.41,-23.37 733.23,-26.31 743.02,-30.36 743.41,-23.37"/>
</g>
<!-- aws_route_table.public -->
<g id="node23" class="node">
<title>aws_route_table.public</title>
<polygon fill="none" stroke="black" points="739,-132 572,-132 572,-96 739,-96 739,-132"/>
<text text-anchor="middle" x="655.5" y="-110.3" font-family="sans-serif" font-size="14.00">aws_route_table.public</text>
</g>
<!-- aws_route_table.public&#45;&gt;aws_internet_gateway.igw -->
<g id="edge38" class="edge">
<title>aws_route_table.public&#45;&gt;aws_internet_gateway.igw</title>
<path fill="none" stroke="black" d="M571.71,-124.65C525.11,-130.65 466.46,-138.19 416.74,-144.59"/>
<polygon fill="black" stroke="black" points="416.08,-141.15 406.6,-145.89 416.97,-148.09 416.08,-141.15"/>
</g>
<!-- aws_route_table_association.private_a -->
<g id="node24" class="node">
<title>aws_route_table_association.private_a</title>
<polygon fill="none" stroke="black" points="1633,-139 1367,-139 1367,-103 1633,-103 1633,-139"/>
<text text-anchor="middle" x="1500" y="-117.3" font-family="sans-serif" font-size="14.00">aws_route_table_association.private_a</text>
</g>
<!-- aws_route_table_association.private_a&#45;&gt;aws_route_table.private -->
<g id="edge39" class="edge">
<title>aws_route_table_association.private_a&#45;&gt;aws_route_table.private</title>
<path fill="none" stroke="black" d="M1423.9,-102.96C1378.88,-92.59 1320.39,-79.9 1268,-71 1228.31,-64.26 1184.28,-58.47 1146.28,-54.01"/>
<polygon fill="black" stroke="black" points="1146.58,-50.52 1136.24,-52.85 1145.77,-57.48 1146.58,-50.52"/>
</g>
<!-- aws_route_table_association.private_a&#45;&gt;aws_subnet.private_a -->
<g id="edge40" class="edge">
<title>aws_route_table_association.private_a&#45;&gt;aws_subnet.private_a</title>
<path fill="none" stroke="black" d="M1440.3,-139.12C1393.99,-152.59 1327.5,-170.11 1268,-179 1185.26,-191.36 592,-182.01 516,-217 494.87,-226.73 500.05,-243.2 480,-255 455.92,-269.17 427.21,-278.72 400.42,-285.14"/>
<polygon fill="black" stroke="black" points="399.62,-281.73 390.64,-287.36 401.17,-288.55 399.62,-281.73"/>
</g>
<!-- aws_route_table_association.private_b -->
<g id="node25" class="node">
<title>aws_route_table_association.private_b</title>
<polygon fill="none" stroke="black" points="1633,-289 1367,-289 1367,-253 1633,-253 1633,-289"/>
<text text-anchor="middle" x="1500" y="-267.3" font-family="sans-serif" font-size="14.00">aws_route_table_association.private_b</text>
</g>
<!-- aws_route_table_association.private_b&#45;&gt;aws_route_table.private -->
<g id="edge41" class="edge">
<title>aws_route_table_association.private_b&#45;&gt;aws_route_table.private</title>
<path fill="none" stroke="black" d="M1456.38,-252.91C1413.17,-232.75 1346.76,-196.48 1304,-148 1279.01,-119.67 1298.56,-93.21 1268,-71 1233.31,-45.79 1187.01,-37.54 1146.04,-36.21"/>
<polygon fill="black" stroke="black" points="1146.09,-32.71 1136.03,-36.02 1145.96,-39.71 1146.09,-32.71"/>
</g>
<!-- aws_route_table_association.private_b&#45;&gt;aws_subnet.private_b -->
<g id="edge42" class="edge">
<title>aws_route_table_association.private_b&#45;&gt;aws_subnet.private_b</title>
<path fill="none" stroke="black" d="M1424.03,-252.97C1292.19,-225.76 1015.33,-189.21 831,-309 801.67,-328.06 824.86,-360.78 795,-379 689.15,-443.59 639.73,-387.17 516,-379 477.97,-376.49 436.2,-371.36 400.45,-366.25"/>
<polygon fill="black" stroke="black" points="400.93,-362.78 390.53,-364.81 399.93,-369.71 400.93,-362.78"/>
</g>
<!-- aws_route_table_association.public_a -->
<g id="node26" class="node">
<title>aws_route_table_association.public_a</title>
<polygon fill="none" stroke="black" points="1179.5,-116 919.5,-116 919.5,-80 1179.5,-80 1179.5,-116"/>
<text text-anchor="middle" x="1049.5" y="-94.3" font-family="sans-serif" font-size="14.00">aws_route_table_association.public_a</text>
</g>
<!-- aws_route_table_association.public_a&#45;&gt;aws_route_table.public -->
<g id="edge43" class="edge">
<title>aws_route_table_association.public_a&#45;&gt;aws_route_table.public</title>
<path fill="none" stroke="black" d="M919.33,-103.27C863.82,-105.54 800.17,-108.14 749.42,-110.21"/>
<polygon fill="black" stroke="black" points="748.97,-106.72 739.12,-110.63 749.26,-113.72 748.97,-106.72"/>
</g>
<!-- aws_route_table_association.public_a&#45;&gt;aws_subnet.public_a -->
<g id="edge44" class="edge">
<title>aws_route_table_association.public_a&#45;&gt;aws_subnet.public_a</title>
<path fill="none" stroke="black" d="M919.22,-92.08C879.39,-90.34 835.39,-88.5 795,-87 656.01,-81.82 494.46,-77.06 398.01,-74.34"/>
<polygon fill="black" stroke="black" points="397.82,-70.83 387.73,-74.05 397.63,-77.83 397.82,-70.83"/>
</g>
<!-- aws_route_table_association.public_b -->
<g id="node27" class="node">
<title>aws_route_table_association.public_b</title>
<polygon fill="none" stroke="black" points="1179.5,-170 919.5,-170 919.5,-134 1179.5,-134 1179.5,-170"/>
<text text-anchor="middle" x="1049.5" y="-148.3" font-family="sans-serif" font-size="14.00">aws_route_table_association.public_b</text>
</g>
<!-- aws_route_table_association.public_b&#45;&gt;aws_route_table.public -->
<g id="edge45" class="edge">
<title>aws_route_table_association.public_b&#45;&gt;aws_route_table.public</title>
<path fill="none" stroke="black" d="M919.33,-139.48C863.7,-134.09 799.91,-127.9 749.1,-122.98"/>
<polygon fill="black" stroke="black" points="749.41,-119.49 739.12,-122.01 748.74,-126.46 749.41,-119.49"/>
</g>
<!-- aws_subnet.public_b -->
<g id="node36" class="node">
<title>aws_subnet.public_b</title>
<polygon fill="none" stroke="black" points="387.5,-246 235.5,-246 235.5,-210 387.5,-210 387.5,-246"/>
<text text-anchor="middle" x="311.5" y="-224.3" font-family="sans-serif" font-size="14.00">aws_subnet.public_b</text>
</g>
<!-- aws_route_table_association.public_b&#45;&gt;aws_subnet.public_b -->
<g id="edge46" class="edge">
<title>aws_route_table_association.public_b&#45;&gt;aws_subnet.public_b</title>
<path fill="none" stroke="black" d="M919.38,-154.24C811.2,-157.44 652.94,-165.19 516,-184 475.07,-189.62 430.13,-198.99 392.91,-207.65"/>
<polygon fill="black" stroke="black" points="392.06,-204.25 383.13,-209.94 393.67,-211.06 392.06,-204.25"/>
</g>
<!-- aws_secretsmanager_secret_version.app_secrets_version -->
<g id="node29" class="node">
<title>aws_secretsmanager_secret_version.app_secrets_version</title>
<polygon fill="none" stroke="black" points="1696,-462 1304,-462 1304,-426 1696,-426 1696,-462"/>
<text text-anchor="middle" x="1500" y="-440.3" font-family="sans-serif" font-size="14.00">aws_secretsmanager_secret_version.app_secrets_version</text>
</g>
<!-- aws_secretsmanager_secret_version.app_secrets_version&#45;&gt;aws_db_instance.postgres -->
<g id="edge47" class="edge">
<title>aws_secretsmanager_secret_version.app_secrets_version&#45;&gt;aws_db_instance.postgres</title>
<path fill="none" stroke="black" d="M1456.39,-425.96C1410.65,-407.33 1335.44,-378.82 1268,-363 1231.18,-354.36 1190.16,-348.36 1153.75,-344.25"/>
<polygon fill="black" stroke="black" points="1153.93,-340.75 1143.61,-343.14 1153.17,-347.71 1153.93,-340.75"/>
</g>
<!-- aws_secretsmanager_secret_version.app_secrets_version&#45;&gt;aws_secretsmanager_secret.app_secrets_version -->
<g id="edge48" class="edge">
<title>aws_secretsmanager_secret_version.app_secrets_version&#45;&gt;aws_secretsmanager_secret.app_secrets_version</title>
<path fill="none" stroke="black" d="M1458.85,-462.05C1414.83,-483.79 1345.01,-524.32 1304,-579 1273.64,-619.48 1309.05,-657.42 1268,-687 1110.44,-800.56 1020.99,-727.32 831,-687 813.87,-683.37 812.05,-674.97 795,-671 695.94,-647.93 582.4,-642.46 490.36,-643.09"/>
<polygon fill="black" stroke="black" points="490.06,-639.59 480.1,-643.19 490.13,-646.59 490.06,-639.59"/>
</g>
<!-- aws_security_group.lambda&#45;&gt;aws_vpc.main -->
<g id="edge49" class="edge">
<title>aws_security_group.lambda&#45;&gt;aws_vpc.main</title>
<path fill="none" stroke="black" d="M212.39,-409.43C188.35,-402.64 163.62,-392.91 143,-379 109.38,-356.31 83.19,-316.63 68.29,-290.08"/>
<polygon fill="black" stroke="black" points="71.36,-288.39 63.5,-281.29 65.21,-291.74 71.36,-288.39"/>
</g>
<!-- aws_security_group.rds&#45;&gt;aws_security_group.lambda -->
<g id="edge50" class="edge">
<title>aws_security_group.rds&#45;&gt;aws_security_group.lambda</title>
<path fill="none" stroke="black" d="M570.4,-439.33C525.25,-436.82 469.1,-433.7 420.73,-431.01"/>
<polygon fill="black" stroke="black" points="420.71,-427.51 410.53,-430.45 420.32,-434.5 420.71,-427.51"/>
</g>
<!-- aws_subnet.private_a&#45;&gt;aws_vpc.main -->
<g id="edge51" class="edge">
<title>aws_subnet.private_a&#45;&gt;aws_vpc.main</title>
<path fill="none" stroke="black" d="M232.3,-287.31C195.36,-282.26 151.87,-276.31 117.15,-271.57"/>
<polygon fill="black" stroke="black" points="117.52,-268.08 107.14,-270.2 116.57,-275.02 117.52,-268.08"/>
</g>
<!-- aws_subnet.private_b&#45;&gt;aws_vpc.main -->
<g id="edge52" class="edge">
<title>aws_subnet.private_b&#45;&gt;aws_vpc.main</title>
<path fill="none" stroke="black" d="M232.23,-346.76C203.4,-342.94 170.98,-336.35 143,-325 121.09,-316.11 99.3,-300.95 82.83,-287.84"/>
<polygon fill="black" stroke="black" points="84.68,-284.84 74.73,-281.22 80.26,-290.26 84.68,-284.84"/>
</g>
<!-- aws_subnet.public_a&#45;&gt;aws_vpc.main -->
<g id="edge53" class="edge">
<title>aws_subnet.public_a&#45;&gt;aws_vpc.main</title>
<path fill="none" stroke="black" d="M235.35,-87.41C204.5,-96.41 169.8,-110.22 143,-131 106.95,-158.94 80.56,-205.84 66.38,-235.56"/>
<polygon fill="black" stroke="black" points="63.07,-234.38 62.04,-244.93 69.42,-237.32 63.07,-234.38"/>
</g>
<!-- aws_subnet.public_b&#45;&gt;aws_vpc.main -->
<g id="edge54" class="edge">
<title>aws_subnet.public_b&#45;&gt;aws_vpc.main</title>
<path fill="none" stroke="black" d="M235.42,-238.26C197.96,-243.39 153.15,-249.51 117.5,-254.39"/>
<polygon fill="black" stroke="black" points="116.66,-250.97 107.23,-255.79 117.61,-257.9 116.66,-250.97"/>
</g>
<!-- aws_vpc_endpoint.rds -->
<g id="node38" class="node">
<title>aws_vpc_endpoint.rds</title>
<polygon fill="none" stroke="black" points="735.5,-316 575.5,-316 575.5,-280 735.5,-280 735.5,-316"/>
<text text-anchor="middle" x="655.5" y="-294.3" font-family="sans-serif" font-size="14.00">aws_vpc_endpoint.rds</text>
</g>
<!-- aws_vpc_endpoint.rds&#45;&gt;aws_security_group.lambda -->
<g id="edge55" class="edge">
<title>aws_vpc_endpoint.rds&#45;&gt;aws_security_group.lambda</title>
<path fill="none" stroke="black" d="M575.22,-302.52C554.67,-306.52 533.43,-313.39 516,-325 491.99,-340.99 503.38,-362.11 480,-379 462.4,-391.71 441.46,-400.91 420.44,-407.56"/>
<polygon fill="black" stroke="black" points="419.37,-404.23 410.79,-410.45 421.38,-410.94 419.37,-404.23"/>
</g>
<!-- aws_vpc_endpoint.rds&#45;&gt;aws_subnet.private_a -->
<g id="edge56" class="edge">
<title>aws_vpc_endpoint.rds&#45;&gt;aws_subnet.private_a</title>
<path fill="none" stroke="black" d="M575.18,-298C522.99,-298 454.64,-298 400.74,-298"/>
<polygon fill="black" stroke="black" points="400.51,-294.5 390.51,-298 400.51,-301.5 400.51,-294.5"/>
</g>
<!-- aws_vpc_endpoint.rds&#45;&gt;aws_subnet.private_b -->
<g id="edge57" class="edge">
<title>aws_vpc_endpoint.rds&#45;&gt;aws_subnet.private_b</title>
<path fill="none" stroke="black" d="M575.18,-310.52C522.89,-318.78 454.35,-329.6 400.4,-338.12"/>
<polygon fill="black" stroke="black" points="399.84,-334.67 390.51,-339.68 400.93,-341.58 399.84,-334.67"/>
</g>
<!-- aws_vpc_endpoint.secretsmanager -->
<g id="node39" class="node">
<title>aws_vpc_endpoint.secretsmanager</title>
<polygon fill="none" stroke="black" points="778.5,-370 532.5,-370 532.5,-334 778.5,-334 778.5,-370"/>
<text text-anchor="middle" x="655.5" y="-348.3" font-family="sans-serif" font-size="14.00">aws_vpc_endpoint.secretsmanager</text>
</g>
<!-- aws_vpc_endpoint.secretsmanager&#45;&gt;aws_security_group.lambda -->
<g id="edge58" class="edge">
<title>aws_vpc_endpoint.secretsmanager&#45;&gt;aws_security_group.lambda</title>
<path fill="none" stroke="black" d="M569.96,-370.04C520.54,-380.59 458.05,-393.93 407,-404.83"/>
<polygon fill="black" stroke="black" points="406,-401.46 396.96,-406.97 407.47,-408.31 406,-401.46"/>
</g>
<!-- aws_vpc_endpoint.secretsmanager&#45;&gt;aws_subnet.private_a -->
<g id="edge59" class="edge">
<title>aws_vpc_endpoint.secretsmanager&#45;&gt;aws_subnet.private_a</title>
<path fill="none" stroke="black" d="M540.14,-333.94C494.66,-326.76 443.15,-318.63 400.65,-311.92"/>
<polygon fill="black" stroke="black" points="401.03,-308.44 390.61,-310.33 399.94,-315.35 401.03,-308.44"/>
</g>
<!-- aws_vpc_endpoint.secretsmanager&#45;&gt;aws_subnet.private_b -->
<g id="edge60" class="edge">
<title>aws_vpc_endpoint.secretsmanager&#45;&gt;aws_subnet.private_b</title>
<path fill="none" stroke="black" d="M532.48,-352C488.97,-352 440.85,-352 400.74,-352"/>
<polygon fill="black" stroke="black" points="400.72,-348.5 390.72,-352 400.72,-355.5 400.72,-348.5"/>
</g>
</g>
</svg>
